<mxfile host="app.diagrams.net" modified="2024-02-05T09:58:54.351Z" agent="Mozilla/5.0 (Windows NT 10.0; Win64; x64) AppleWebKit/537.36 (KHTML, like Gecko) Chrome/121.0.0.0 Safari/537.36 Edg/121.0.0.0" etag="ZOPpBbtqitsY3OQh_Ueb" version="23.0.2" type="device" pages="2">
  <diagram name="Stránka-1" id="3kDSJPzvYyDFhHLhTHN7">
    <mxGraphModel dx="2182" dy="661" grid="1" gridSize="10" guides="1" tooltips="1" connect="1" arrows="1" fold="1" page="1" pageScale="1" pageWidth="827" pageHeight="1169" math="0" shadow="0">
      <root>
        <mxCell id="0" />
        <mxCell id="1" parent="0" />
        <mxCell id="CRt8c8zLfaPbz9rHcLIz-3" value="" style="edgeStyle=orthogonalEdgeStyle;rounded=0;orthogonalLoop=1;jettySize=auto;html=1;" edge="1" parent="1" source="CRt8c8zLfaPbz9rHcLIz-1" target="CRt8c8zLfaPbz9rHcLIz-2">
          <mxGeometry relative="1" as="geometry" />
        </mxCell>
        <mxCell id="CRt8c8zLfaPbz9rHcLIz-1" value="Hornerovo schema" style="ellipse;whiteSpace=wrap;html=1;" vertex="1" parent="1">
          <mxGeometry x="100" y="190" width="120" height="80" as="geometry" />
        </mxCell>
        <mxCell id="CRt8c8zLfaPbz9rHcLIz-5" value="" style="edgeStyle=orthogonalEdgeStyle;rounded=0;orthogonalLoop=1;jettySize=auto;html=1;" edge="1" parent="1" source="CRt8c8zLfaPbz9rHcLIz-2" target="CRt8c8zLfaPbz9rHcLIz-4">
          <mxGeometry relative="1" as="geometry" />
        </mxCell>
        <mxCell id="CRt8c8zLfaPbz9rHcLIz-2" value="pole koeficientů K&lt;br&gt;hodnota X" style="shape=parallelogram;perimeter=parallelogramPerimeter;whiteSpace=wrap;html=1;fixedSize=1;" vertex="1" parent="1">
          <mxGeometry x="90" y="290" width="140" height="60" as="geometry" />
        </mxCell>
        <mxCell id="-2aacsh-A_yfe7HEVC7K-3" value="" style="edgeStyle=orthogonalEdgeStyle;rounded=0;orthogonalLoop=1;jettySize=auto;html=1;" edge="1" parent="1" source="CRt8c8zLfaPbz9rHcLIz-4" target="-2aacsh-A_yfe7HEVC7K-1">
          <mxGeometry relative="1" as="geometry" />
        </mxCell>
        <mxCell id="CRt8c8zLfaPbz9rHcLIz-4" value="V= 0" style="rounded=0;whiteSpace=wrap;html=1;" vertex="1" parent="1">
          <mxGeometry x="100" y="370" width="120" height="60" as="geometry" />
        </mxCell>
        <mxCell id="-2aacsh-A_yfe7HEVC7K-5" value="" style="edgeStyle=orthogonalEdgeStyle;rounded=0;orthogonalLoop=1;jettySize=auto;html=1;" edge="1" parent="1" source="-2aacsh-A_yfe7HEVC7K-1" target="-2aacsh-A_yfe7HEVC7K-4">
          <mxGeometry relative="1" as="geometry" />
        </mxCell>
        <mxCell id="-2aacsh-A_yfe7HEVC7K-9" value="" style="edgeStyle=orthogonalEdgeStyle;rounded=0;orthogonalLoop=1;jettySize=auto;html=1;" edge="1" parent="1" source="-2aacsh-A_yfe7HEVC7K-1" target="-2aacsh-A_yfe7HEVC7K-8">
          <mxGeometry relative="1" as="geometry" />
        </mxCell>
        <mxCell id="-2aacsh-A_yfe7HEVC7K-1" value="první až předposlední K" style="strokeWidth=2;html=1;shape=mxgraph.flowchart.loop_limit;whiteSpace=wrap;" vertex="1" parent="1">
          <mxGeometry x="110" y="450" width="100" height="60" as="geometry" />
        </mxCell>
        <mxCell id="-2aacsh-A_yfe7HEVC7K-4" value="V = (v + koeficient) * x" style="whiteSpace=wrap;html=1;strokeWidth=2;" vertex="1" parent="1">
          <mxGeometry x="90" y="525" width="140" height="60" as="geometry" />
        </mxCell>
        <mxCell id="-2aacsh-A_yfe7HEVC7K-6" style="edgeStyle=orthogonalEdgeStyle;rounded=0;orthogonalLoop=1;jettySize=auto;html=1;" edge="1" parent="1" source="-2aacsh-A_yfe7HEVC7K-4" target="-2aacsh-A_yfe7HEVC7K-1">
          <mxGeometry relative="1" as="geometry">
            <Array as="points">
              <mxPoint x="250" y="560" />
              <mxPoint x="250" y="488" />
            </Array>
          </mxGeometry>
        </mxCell>
        <mxCell id="-2aacsh-A_yfe7HEVC7K-11" value="" style="edgeStyle=orthogonalEdgeStyle;rounded=0;orthogonalLoop=1;jettySize=auto;html=1;" edge="1" parent="1" source="-2aacsh-A_yfe7HEVC7K-8" target="-2aacsh-A_yfe7HEVC7K-10">
          <mxGeometry relative="1" as="geometry" />
        </mxCell>
        <mxCell id="-2aacsh-A_yfe7HEVC7K-8" value="V = posledni koeficient + V&amp;nbsp;" style="whiteSpace=wrap;html=1;strokeWidth=2;" vertex="1" parent="1">
          <mxGeometry x="-50" y="450" width="120" height="60" as="geometry" />
        </mxCell>
        <mxCell id="-2aacsh-A_yfe7HEVC7K-10" value="vysledek je V" style="ellipse;whiteSpace=wrap;html=1;strokeWidth=2;" vertex="1" parent="1">
          <mxGeometry x="-30" y="525" width="80" height="80" as="geometry" />
        </mxCell>
      </root>
    </mxGraphModel>
  </diagram>
  <diagram id="oefRqRueGqCbjdIP3hgE" name="Stránka-2">
    <mxGraphModel dx="1626" dy="793" grid="1" gridSize="10" guides="1" tooltips="1" connect="1" arrows="1" fold="1" page="1" pageScale="1" pageWidth="827" pageHeight="1169" math="0" shadow="0">
      <root>
        <mxCell id="0" />
        <mxCell id="1" parent="0" />
      </root>
    </mxGraphModel>
  </diagram>
</mxfile>
